<mxfile host="app.diagrams.net" modified="2023-02-07T22:32:26.995Z" agent="5.0 (Windows NT 10.0; Win64; x64) AppleWebKit/537.36 (KHTML, like Gecko) Chrome/109.0.0.0 Safari/537.36" etag="25I5XFAihTzcqPxHKwiw" version="20.8.16" type="github">
  <diagram id="C5RBs43oDa-KdzZeNtuy" name="Page-1">
    <mxGraphModel dx="2100" dy="1098" grid="1" gridSize="10" guides="1" tooltips="1" connect="1" arrows="1" fold="1" page="1" pageScale="1" pageWidth="827" pageHeight="1169" math="0" shadow="0">
      <root>
        <mxCell id="WIyWlLk6GJQsqaUBKTNV-0" />
        <mxCell id="WIyWlLk6GJQsqaUBKTNV-1" parent="WIyWlLk6GJQsqaUBKTNV-0" />
        <mxCell id="WlX82vovHXHteLfDoGNi-6" style="edgeStyle=orthogonalEdgeStyle;rounded=0;orthogonalLoop=1;jettySize=auto;html=1;entryX=0.5;entryY=0;entryDx=0;entryDy=0;fontFamily=Lucida Console;fontSize=14;" edge="1" parent="WIyWlLk6GJQsqaUBKTNV-1" source="WlX82vovHXHteLfDoGNi-0">
          <mxGeometry relative="1" as="geometry">
            <mxPoint x="294" y="310" as="targetPoint" />
          </mxGeometry>
        </mxCell>
        <mxCell id="WlX82vovHXHteLfDoGNi-0" value="&lt;font face=&quot;Lucida Console&quot; style=&quot;font-size: 14px;&quot;&gt;Start&lt;/font&gt;" style="ellipse;whiteSpace=wrap;html=1;fillColor=#008a00;fontColor=#ffffff;strokeColor=#005700;" vertex="1" parent="WIyWlLk6GJQsqaUBKTNV-1">
          <mxGeometry x="234" y="200" width="120" height="54" as="geometry" />
        </mxCell>
        <mxCell id="WlX82vovHXHteLfDoGNi-9" value="" style="edgeStyle=orthogonalEdgeStyle;rounded=0;orthogonalLoop=1;jettySize=auto;html=1;fontFamily=Lucida Console;fontSize=14;" edge="1" parent="WIyWlLk6GJQsqaUBKTNV-1" source="WlX82vovHXHteLfDoGNi-7" target="WlX82vovHXHteLfDoGNi-8">
          <mxGeometry relative="1" as="geometry" />
        </mxCell>
        <mxCell id="WlX82vovHXHteLfDoGNi-7" value="input &lt;br&gt;word" style="shape=parallelogram;perimeter=parallelogramPerimeter;whiteSpace=wrap;html=1;fixedSize=1;fontFamily=Lucida Console;fontSize=14;" vertex="1" parent="WIyWlLk6GJQsqaUBKTNV-1">
          <mxGeometry x="234" y="310" width="120" height="64" as="geometry" />
        </mxCell>
        <mxCell id="WlX82vovHXHteLfDoGNi-11" value="" style="edgeStyle=orthogonalEdgeStyle;rounded=0;orthogonalLoop=1;jettySize=auto;html=1;fontFamily=Lucida Console;fontSize=14;" edge="1" parent="WIyWlLk6GJQsqaUBKTNV-1" source="WlX82vovHXHteLfDoGNi-8" target="WlX82vovHXHteLfDoGNi-10">
          <mxGeometry relative="1" as="geometry" />
        </mxCell>
        <mxCell id="WlX82vovHXHteLfDoGNi-17" style="edgeStyle=orthogonalEdgeStyle;rounded=0;orthogonalLoop=1;jettySize=auto;html=1;fontFamily=Lucida Console;fontSize=14;" edge="1" parent="WIyWlLk6GJQsqaUBKTNV-1" source="WlX82vovHXHteLfDoGNi-8">
          <mxGeometry relative="1" as="geometry">
            <mxPoint x="420" y="440" as="targetPoint" />
          </mxGeometry>
        </mxCell>
        <mxCell id="WlX82vovHXHteLfDoGNi-8" value="&lt;font style=&quot;font-size: 14px;&quot;&gt;input &lt;br&gt;leatter&lt;/font&gt;" style="shape=parallelogram;perimeter=parallelogramPerimeter;whiteSpace=wrap;html=1;fixedSize=1;fontFamily=Lucida Console;fontSize=14;" vertex="1" parent="WIyWlLk6GJQsqaUBKTNV-1">
          <mxGeometry x="234" y="410" width="120" height="64" as="geometry" />
        </mxCell>
        <mxCell id="WlX82vovHXHteLfDoGNi-12" style="edgeStyle=orthogonalEdgeStyle;rounded=0;orthogonalLoop=1;jettySize=auto;html=1;fontFamily=Lucida Console;fontSize=14;entryX=0;entryY=0.75;entryDx=0;entryDy=0;" edge="1" parent="WIyWlLk6GJQsqaUBKTNV-1" source="WlX82vovHXHteLfDoGNi-10" target="WlX82vovHXHteLfDoGNi-8">
          <mxGeometry relative="1" as="geometry">
            <mxPoint x="130" y="450" as="targetPoint" />
            <Array as="points">
              <mxPoint x="170" y="550" />
              <mxPoint x="170" y="450" />
              <mxPoint x="240" y="450" />
            </Array>
          </mxGeometry>
        </mxCell>
        <mxCell id="WlX82vovHXHteLfDoGNi-15" value="Yes" style="edgeLabel;html=1;align=center;verticalAlign=middle;resizable=0;points=[];fontSize=14;fontFamily=Lucida Console;" vertex="1" connectable="0" parent="WlX82vovHXHteLfDoGNi-12">
          <mxGeometry x="0.1046" relative="1" as="geometry">
            <mxPoint as="offset" />
          </mxGeometry>
        </mxCell>
        <mxCell id="WlX82vovHXHteLfDoGNi-13" style="edgeStyle=orthogonalEdgeStyle;rounded=0;orthogonalLoop=1;jettySize=auto;html=1;fontFamily=Lucida Console;fontSize=14;entryX=0;entryY=0.5;entryDx=0;entryDy=0;" edge="1" parent="WIyWlLk6GJQsqaUBKTNV-1" source="WlX82vovHXHteLfDoGNi-10" target="WlX82vovHXHteLfDoGNi-14">
          <mxGeometry relative="1" as="geometry">
            <mxPoint x="410" y="550" as="targetPoint" />
          </mxGeometry>
        </mxCell>
        <mxCell id="WlX82vovHXHteLfDoGNi-10" value="If &lt;br&gt;correct" style="rhombus;whiteSpace=wrap;html=1;fontSize=14;fontFamily=Lucida Console;" vertex="1" parent="WIyWlLk6GJQsqaUBKTNV-1">
          <mxGeometry x="246" y="510" width="96" height="84" as="geometry" />
        </mxCell>
        <mxCell id="WlX82vovHXHteLfDoGNi-19" style="edgeStyle=orthogonalEdgeStyle;rounded=0;orthogonalLoop=1;jettySize=auto;html=1;fontFamily=Lucida Console;fontSize=14;" edge="1" parent="WIyWlLk6GJQsqaUBKTNV-1" source="WlX82vovHXHteLfDoGNi-14">
          <mxGeometry relative="1" as="geometry">
            <mxPoint x="480" y="620" as="targetPoint" />
          </mxGeometry>
        </mxCell>
        <mxCell id="WlX82vovHXHteLfDoGNi-14" value="Draw" style="shape=document;whiteSpace=wrap;html=1;boundedLbl=1;fontFamily=Lucida Console;fontSize=14;" vertex="1" parent="WIyWlLk6GJQsqaUBKTNV-1">
          <mxGeometry x="420" y="510" width="120" height="84" as="geometry" />
        </mxCell>
        <mxCell id="WlX82vovHXHteLfDoGNi-16" value="NO" style="text;html=1;align=center;verticalAlign=middle;resizable=0;points=[];autosize=1;strokeColor=none;fillColor=none;fontSize=14;fontFamily=Lucida Console;" vertex="1" parent="WIyWlLk6GJQsqaUBKTNV-1">
          <mxGeometry x="360" y="525" width="40" height="30" as="geometry" />
        </mxCell>
        <mxCell id="WlX82vovHXHteLfDoGNi-22" style="edgeStyle=orthogonalEdgeStyle;rounded=0;orthogonalLoop=1;jettySize=auto;html=1;fontFamily=Lucida Console;fontSize=14;entryX=0.73;entryY=-0.004;entryDx=0;entryDy=0;entryPerimeter=0;" edge="1" parent="WIyWlLk6GJQsqaUBKTNV-1" source="WlX82vovHXHteLfDoGNi-18" target="WlX82vovHXHteLfDoGNi-23">
          <mxGeometry relative="1" as="geometry">
            <mxPoint x="610" y="800" as="targetPoint" />
          </mxGeometry>
        </mxCell>
        <mxCell id="WlX82vovHXHteLfDoGNi-18" value="You&lt;br&gt;Win!!" style="shape=document;whiteSpace=wrap;html=1;boundedLbl=1;fontFamily=Lucida Console;fontSize=14;" vertex="1" parent="WIyWlLk6GJQsqaUBKTNV-1">
          <mxGeometry x="420" y="390" width="120" height="84" as="geometry" />
        </mxCell>
        <mxCell id="WlX82vovHXHteLfDoGNi-21" style="edgeStyle=orthogonalEdgeStyle;rounded=0;orthogonalLoop=1;jettySize=auto;html=1;fontFamily=Lucida Console;fontSize=14;entryX=0;entryY=0.5;entryDx=0;entryDy=0;" edge="1" parent="WIyWlLk6GJQsqaUBKTNV-1" source="WlX82vovHXHteLfDoGNi-20" target="WlX82vovHXHteLfDoGNi-23">
          <mxGeometry relative="1" as="geometry">
            <mxPoint x="480" y="750" as="targetPoint" />
            <Array as="points">
              <mxPoint x="480" y="805" />
            </Array>
          </mxGeometry>
        </mxCell>
        <mxCell id="WlX82vovHXHteLfDoGNi-20" value="You &lt;br&gt;lose!!" style="shape=document;whiteSpace=wrap;html=1;boundedLbl=1;fontFamily=Lucida Console;fontSize=14;" vertex="1" parent="WIyWlLk6GJQsqaUBKTNV-1">
          <mxGeometry x="420" y="620" width="120" height="84" as="geometry" />
        </mxCell>
        <mxCell id="WlX82vovHXHteLfDoGNi-23" value="&lt;font face=&quot;Lucida Console&quot;&gt;&lt;span style=&quot;font-size: 14px;&quot;&gt;End!&lt;/span&gt;&lt;/font&gt;" style="ellipse;whiteSpace=wrap;html=1;fillColor=#008a00;fontColor=#ffffff;strokeColor=#005700;" vertex="1" parent="WIyWlLk6GJQsqaUBKTNV-1">
          <mxGeometry x="550" y="780" width="120" height="54" as="geometry" />
        </mxCell>
      </root>
    </mxGraphModel>
  </diagram>
</mxfile>
